# xmcd
#
# Track frame offsets:
#	150
#	25462
#	46158
#	66086
#	85732
#	97817
#	116357
#	143315
#	168035
#	182754
#
# Disc length: 2685 seconds
#
# Revision: 1
# Processed by: cddbd v1.4PL0 Copyright (c) Steve Scherf et al.
# Submitted via: CDmax 1.8
#
DISCID=6d0a7b0a
DTITLE=Doug Hough - 1211
DYEAR=1900
DGENRE=Country
TTITLE0=Lonely
TTITLE1=You Didn't Say (You'd Say Goodbye)
TTITLE2=Just Around The Corner
TTITLE3=Road To Your Heart
TTITLE4=Constant Drama Of A P.F.B.
TTITLE5=Glory Bound Sundown
TTITLE6=Breathless
TTITLE7=Meet Me At The End Of The Aisle
TTITLE8=Silhouette
TTITLE9=Still In Pieces
EXTD=
EXTT0=
EXTT1=
EXTT2=
EXTT3=
EXTT4=
EXTT5=
EXTT6=
EXTT7=
EXTT8=
EXTT9=
PLAYORDER=
